<svg xmlns="http://www.w3.org/2000/svg" fill="none" viewBox="0 0 24 24" height="24" width="24"><path fill="currentColor" fill-rule="evenodd" d="M12.83 3.138c-.137.011-.157.16-.185.362a3 3 0 0 1-.056.313 1.3 1.3 0 0 1-.086.23c-.063.125-.148.239-.232.352l-.011.015a3 3 0 0 1-.162.201l-.141.161q-.086.096-.169.194l-.004.005a3 3 0 0 0-.192.25.4.4 0 0 0-.03.055l-.02.045q-.02.054-.05.1l-.01.013a.5.5 0 0 0-.097.195.3.3 0 0 0-.01.078v.025c0 .05-.02.095-.038.141s-.037.09-.038.139v.006l-.063.021-.01-.02a1 1 0 0 1-.083-.39 5.7 5.7 0 0 0-1.858.311 4 4 0 0 0-.325.143 3.3 3.3 0 0 0-.834.59c-.277.27-.476.613-.592.975q-.033.105-.063.218a3.6 3.6 0 0 0-.07 1.55 5.5 5.5 0 0 0 .175.727 17 17 0 0 0 .276.818l.011.033.08.228q.004.007.006.016l.029.082a.2.2 0 0 1 .01.05c.007.087-.059.136-.138.135a.23.23 0 0 1-.18-.101l-.018-.028-.127-.247-.034-.066q-.075-.144-.156-.308a9 9 0 0 1-.28-.612.55.55 0 0 0-.567-.28c-.11.024-.196.093-.218.214a.4.4 0 0 0-.006.066 3.4 3.4 0 0 0 .05.582c.042.256.107.51.185.765a11 11 0 0 0 .164.5l.023.064.2.57.003.007a.2.2 0 0 1 .01.07c-.006.095-.108.134-.205.101a.25.25 0 0 1-.12-.09l-.066-.116q-.066-.113-.14-.246a16 16 0 0 1-.22-.41l-.014-.03-.102-.21-.004-.008a.62.62 0 0 0-.385-.343.4.4 0 0 0-.248 0 .3.3 0 0 0-.159.126.4.4 0 0 0-.057.225 3.4 3.4 0 0 0 .05.581c.045.274.117.546.201.818l.06.185-.298.157a2 2 0 0 0 .257.026l.083-.056.082.235.06.172.009.023.022.062.06.173.002.005.037.107c.066.19-.174.247-.302.097l-.013-.017a5 5 0 0 1-.365-.582l-.009-.015-.013-.025-.03-.055a.3.3 0 0 0-.043-.064c-.151-.176-.448-.14-.468.094l-.001.035a3 3 0 0 0 .008.199c.017.231.063.46.124.69l.062.217.004.013c.069.223.149.445.229.668l.035.098.06.167.005.017.018.051c.023.067.016.115-.009.141-.031.034-.09.034-.145-.003a.3.3 0 0 1-.081-.089c-.043-.087-.307-.019-.31.078l-.001.05v.016l-.013.268a11 11 0 0 1-.227 1.742q-.039.181-.087.362a.4.4 0 0 0 .085.373c1.7 1.88 4.163 2.507 6.022 2.692q.261.026.515.093c.415.109.739.163 1.063.164l.001-.001h.002c.284 0 .635 0 .93-.061a1 1 0 0 1 .153-.017v1.942q.112-.06.216-.133l-.216-1.81c.835-.092 1.088-1.266.66-1.963-.376-.613-.738-1.435-.946-2.506a10 10 0 0 1-.155-1.197c-.022-.324-.267-.596-.587-.697-.553-.175-.925-.43-1.17-.718-.673-.788-.402-1.82-.308-2.105l.001-.002v-.003c.006-.015.026-.01.026.005v.003c-.052.211-.24 1.352.582 2.042.235.198.553.358.98.45q.258.055.571.075c.38.022.763.061 1.119.193a23 23 0 0 1 1.553.634q.144.067.27.16c.273.196.491.467.71.74.204.252.408.506.657.7q.07.056.152.107.134.083.302.151c.239.096.509.047.729-.084.103-.061.213-.127.306-.186a.31.31 0 0 1 .264-.033c.06.02.124.021.183-.002.208-.081.728-.322 1.049-.79a.75.75 0 0 0 .126-.385 1.3 1.3 0 0 0-.025-.337l-.021-.107a1 1 0 0 0-.032-.125.3.3 0 0 1-.021-.15.4.4 0 0 1 .039-.12c.047-.106.09-.23.121-.36.078-.332.07-.703-.163-.891l-.035-.028a1.9 1.9 0 0 1-.45-.45c-.149-.23-.385-.586-.669-.976a14 14 0 0 0-.94-1.163c-.755-.823-.948-1.285-.993-1.89-.022-.289-.104-.576-.322-.775a3 3 0 0 0-.518-.38c-.18-.106-.305-.181-.415-.425l-.035-.077-.095-.214c-.143-.33-.298-.746-.236-1.005l.018-.074a11 11 0 0 0 .201-1.192l.007-.062c.027-.261.04-.519.035-.751a3 3 0 0 0-.026-.349c-.05-.352-.174-.589-.408-.589-.153 0-.174.152-.203.363-.014.106-.03.227-.067.35a1 1 0 0 1-.195.377 4 4 0 0 1-.154.193l-.146.174a20 20 0 0 0-.304.368 5 5 0 0 0-.162.22c-.027.04-.016.102.01.162l.002.004a.5.5 0 0 0 .086.133c.11.113-.022.187-.166.15a.3.3 0 0 1-.062-.023l-.058-.028-.159-.077-.008-.004-.148-.068a.38.38 0 0 1-.214-.27.4.4 0 0 1 0-.13 6 6 0 0 0 .098-.632 7 7 0 0 0 .038-.812 3 3 0 0 0-.038-.427c-.056-.337-.179-.567-.396-.567zm1.68-1.524c.201-.049.399-.07.584-.07 1.657 0 2.297 1.325 2.459 1.806.181.541.2 1.103.193 1.485-.01.662-.115 1.381-.232 1.956a5 5 0 0 1 .582.461c.799.733.965 1.655 1.004 2.169l.009.074.004.01c.023.045.114.2.43.543.75.818 1.423 1.802 1.761 2.32l.023.018.072.057c.947.764 1.017 1.822.999 2.301a3.8 3.8 0 0 1-.138.86c.077.52.08 1.341-.456 2.127-.697 1.02-1.733 1.466-2.068 1.597a2.5 2.5 0 0 1-.59.152c-.654.336-1.6.538-2.578.146a4 4 0 0 1-.647-.326 3.7 3.7 0 0 1 .021 2.106c-.259.889-1.058 2.12-2.685 2.301v-.005c-.5.096-1.014.097-1.27.097l-.07.001c-.597 0-1.132-.104-1.647-.239a1 1 0 0 0-.158-.03c-2.091-.207-5.227-.935-7.467-3.412a2.48 2.48 0 0 1-.561-2.31c.184-.69.245-1.447.26-1.964.008-.318.083-.591.188-.821a5.7 5.7 0 0 1-.19-1.378c0-.54.188-1.123.632-1.595a5 5 0 0 1-.012-.351 2.47 2.47 0 0 1 1.147-2.104 2.37 2.37 0 0 1 1.064-1.482c.051-.42.143-.785.242-1.095a4.5 4.5 0 0 1 1.131-1.846A5.6 5.6 0 0 1 8.46 3.956l.048-.018.05-.017a8.3 8.3 0 0 1 1.56-.363l.114-.13.005-.005c.134-.152.181-.205.217-.253l.006-.04.002-.01c.01-.08.065-.493.287-.898.143-.262.395-.601.82-.863.436-.27.895-.359 1.28-.359a2.44 2.44 0 0 1 1.662.614M4.295 16.09l-1.426.656a2 2 0 0 0 .078.145l1.393-.772zm8.708 7.436v.195c.107 0 .194-.01.254-.019l-.037-.31q-.105.075-.217.134m8.371-11.05-.001-.002z" clip-rule="evenodd"></path></svg>